<svg width="143" height="44" viewBox="0 0 143 44" fill="none" xmlns="http://www.w3.org/2000/svg">
<path d="M61.28 13.41C60.18 12.34 58.87 11.51 57.35 10.9C55.83 10.3 54.17 10 52.37 10C50.57 10 48.89 10.3 47.37 10.9C45.86 11.5 44.56 12.34 43.47 13.41C42.38 14.48 41.53 15.73 40.92 17.16C40.31 18.59 40 20.14 40 21.8C40 23.46 40.31 25.01 40.92 26.44C41.53 27.87 42.38 29.12 43.47 30.19C44.56 31.26 45.86 32.09 47.37 32.7C48.88 33.3 50.55 33.6 52.37 33.6C54.19 33.6 55.83 33.3 57.35 32.7C58.87 32.1 60.18 31.26 61.28 30.19C62.38 29.12 63.23 27.87 63.84 26.44C64.45 25.01 64.76 23.46 64.76 21.8C64.76 20.14 64.45 18.59 63.84 17.16C63.23 15.73 62.37 14.48 61.28 13.41ZM58.19 24.26C57.85 25.01 57.39 25.66 56.81 26.22C56.23 26.77 55.55 27.2 54.79 27.51C54.03 27.82 53.22 27.97 52.37 27.97C51.52 27.97 50.71 27.82 49.95 27.51C49.19 27.2 48.52 26.77 47.95 26.22C47.38 25.67 46.92 25.01 46.59 24.26C46.25 23.51 46.09 22.69 46.09 21.8C46.09 20.91 46.26 20.09 46.59 19.34C46.93 18.59 47.38 17.94 47.95 17.38C48.52 16.83 49.19 16.4 49.95 16.09C50.71 15.78 51.52 15.63 52.37 15.63C53.22 15.63 54.03 15.78 54.79 16.09C55.55 16.4 56.22 16.83 56.81 17.38C57.39 17.93 57.85 18.59 58.19 19.34C58.53 20.09 58.69 20.91 58.69 21.8C58.69 22.69 58.52 23.51 58.19 24.26Z" fill="#375F97"/>
<path d="M76.4099 19.35C75.9399 19.19 75.4599 19.04 74.9699 18.9C74.4799 18.76 74.0499 18.6 73.6699 18.41C73.2799 18.22 72.9699 18 72.7399 17.74C72.4999 17.48 72.3799 17.16 72.3799 16.76C72.3799 16.19 72.6199 15.72 73.0899 15.37C73.5599 15.01 74.1799 14.84 74.9299 14.84C75.5199 14.84 76.1399 14.96 76.7699 15.21C77.3999 15.46 78.0299 15.84 78.6699 16.35L80.9799 11.81C79.8699 11.22 78.7199 10.77 77.5099 10.46C76.2999 10.15 75.1499 10 74.0399 10C72.8499 10 71.7799 10.18 70.8199 10.53C69.8599 10.89 69.0499 11.39 68.3899 12.03C67.7299 12.67 67.2099 13.44 66.8499 14.34C66.4799 15.24 66.2999 16.24 66.2999 17.35C66.2999 18.46 66.4699 19.37 66.8199 20.09C67.1599 20.81 67.6199 21.41 68.1799 21.88C68.7399 22.35 69.3899 22.74 70.1099 23.02C70.8299 23.31 71.5699 23.57 72.3199 23.81C72.9499 24.03 73.4899 24.23 73.9399 24.4C74.3899 24.57 74.7499 24.77 75.0199 24.98C75.2999 25.19 75.4899 25.42 75.6099 25.66C75.7299 25.91 75.7899 26.2 75.7899 26.53C75.7899 27.08 75.5599 27.58 75.0899 28.01C74.6299 28.45 73.9199 28.66 72.9699 28.66C72.1399 28.66 71.2999 28.47 70.4499 28.1C69.5999 27.72 68.7399 27.15 67.8699 26.38L65.3799 31.07C67.7899 32.75 70.4099 33.59 73.2399 33.59C74.5999 33.59 75.8199 33.41 76.8999 33.04C77.9799 32.67 78.8899 32.16 79.6299 31.5C80.3699 30.84 80.9299 30.04 81.3199 29.11C81.7099 28.18 81.8999 27.14 81.8999 26C81.8999 24.3 81.4599 22.92 80.5799 21.86C79.6999 20.8 78.3099 19.96 76.4099 19.32V19.35Z" fill="#375F97"/>
<path d="M101.23 10.6299L96.78 22.5499L92.3 10.6299H86.55L82.75 32.9899H88.54L90.46 20.1199L95.48 32.9899H97.79L103.07 20.1199L104.99 32.9899H110.78L106.98 10.6299H101.23Z" fill="#375F97"/>
<path d="M118.48 11H112.67V33.36H118.48V11Z" fill="#375F97"/>
<path d="M137.65 24.66L137.27 25.24C136.16 26.92 134.34 27.93 132.42 27.93C129.23 27.93 126.83 25.31 126.83 21.84C126.83 18.37 129.23 15.71 132.42 15.71C134.32 15.71 136.05 16.64 137.15 18.25L137.53 18.81L142.38 15.46L142 14.91C139.91 11.85 136.33 10.02 132.41 10.02C125.92 10.02 120.84 15.21 120.84 21.84C120.84 28.47 125.92 33.63 132.41 33.63C136.39 33.63 140.01 31.74 142.1 28.57L142.46 28.02L137.64 24.67H137.65V24.66Z" fill="#375F97"/>
<path d="M5.92262 38.9303C10.0226 41.9803 14.8926 43.5903 20.0026 43.5903C25.1126 43.5903 29.9926 41.9803 34.0826 38.9303C35.1326 38.1403 35.7626 36.9203 35.7626 35.6603C35.7626 34.7803 35.4626 33.9403 34.9226 33.2503C35.1126 33.0403 35.2826 32.8403 35.4526 32.6303C36.0226 31.9303 36.2526 31.0103 36.0626 30.1003C35.9526 29.5903 35.7226 29.1203 35.3926 28.7303C37.2926 25.4003 38.0626 21.5503 37.5826 17.7503C37.1026 13.9503 35.3826 10.4103 32.7126 7.6603C32.9326 7.2003 33.0426 6.6903 33.0226 6.1603C32.9726 5.2403 32.5226 4.4103 31.7926 3.8703C26.9526 0.320299 20.8226 -0.859701 14.9626 0.630299C6.15262 2.8803 -0.147377 11.1203 0.00262251 20.2203C0.0826225 25.0603 1.87262 29.6203 5.09262 33.2203C4.53262 33.9203 4.22262 34.7703 4.22262 35.6603C4.22262 36.9303 4.85262 38.1503 5.90262 38.9303H5.92262ZM1.51262 20.1903C1.38262 11.7803 7.20262 4.1603 15.3526 2.0803C16.8926 1.6903 18.4626 1.4903 20.0226 1.4903C23.9626 1.4903 27.7226 2.7303 30.9226 5.0703C31.2926 5.3403 31.5226 5.7603 31.5426 6.2303C31.5626 6.7103 31.3726 7.1603 31.0226 7.4803L30.6926 7.7803C33.5826 10.3003 35.6026 13.8403 36.1226 17.9303C36.6426 22.0203 35.5726 25.9503 33.4026 29.1203L33.8026 29.3303C34.2226 29.5503 34.5226 29.9403 34.6126 30.4003C34.7026 30.8603 34.5926 31.3203 34.3026 31.6803C33.8226 32.2703 33.2926 32.8103 32.7526 33.3303C32.9026 33.4403 33.0526 33.5303 33.2026 33.6403C33.8926 34.1503 34.2726 34.8703 34.2726 35.6603C34.2726 36.4503 33.8726 37.2303 33.1926 37.7303C29.3526 40.5803 24.7926 42.0903 20.0026 42.0903C15.2126 42.0903 10.6526 40.5803 6.81262 37.7303C6.14262 37.2303 5.73262 36.4503 5.73262 35.6603C5.73262 34.8703 6.11262 34.1503 6.80262 33.6403C6.95262 33.5303 7.12262 33.4303 7.27262 33.3203C3.80262 30.0003 1.59262 25.3403 1.50262 20.1903H1.51262Z" fill="white"/>
<path d="M7.37256 35.6604C7.37256 35.9404 7.53256 36.2204 7.79256 36.4204C11.3426 39.0604 15.5626 40.4604 20.0026 40.4604C24.4426 40.4604 28.6626 39.0604 32.2126 36.4204C32.4726 36.2204 32.6326 35.9404 32.6326 35.6604C32.6326 35.4004 32.4926 35.1504 32.2226 34.9504C31.9826 34.7704 31.7326 34.6104 31.4826 34.4404C28.8626 36.5304 25.7226 37.8804 22.3326 38.3104C21.5526 38.4104 20.7626 38.4604 19.9826 38.4604C15.6826 38.4604 11.7026 36.9404 8.55256 34.4204C8.30256 34.5904 8.04256 34.7604 7.79256 34.9404C7.52256 35.1404 7.38256 35.3904 7.38256 35.6504L7.37256 35.6604Z" fill="#7E85A4"/>
<path d="M6.80263 33.6402C6.11263 34.1502 5.73263 34.8702 5.73263 35.6602C5.73263 36.4502 6.13263 37.2302 6.81263 37.7302C10.6526 40.5802 15.2126 42.0902 20.0026 42.0902C24.7926 42.0902 29.3526 40.5802 33.1926 37.7302C33.8626 37.2302 34.2726 36.4502 34.2726 35.6602C34.2726 34.8702 33.8926 34.1602 33.2026 33.6402C33.0526 33.5302 32.9026 33.4402 32.7526 33.3302C33.2926 32.8102 33.8226 32.2702 34.3026 31.6802C34.5926 31.3302 34.7026 30.8602 34.6126 30.4002C34.5126 29.9302 34.2226 29.5402 33.8026 29.3302L33.4026 29.1202C35.5626 25.9502 36.6426 22.0302 36.1226 17.9302C35.6026 13.8402 33.5826 10.3002 30.6926 7.78024L31.0226 7.48024C31.3726 7.17024 31.5626 6.71024 31.5426 6.23024C31.5226 5.76024 31.2926 5.34023 30.9226 5.07023C27.7226 2.73023 23.9626 1.49023 20.0226 1.49023C18.4626 1.49023 16.8926 1.69023 15.3526 2.08023C7.20263 4.16023 1.38263 11.7802 1.51263 20.1902C1.59263 25.3402 3.80263 29.9902 7.28263 33.3202C7.12263 33.4302 6.96263 33.5302 6.81263 33.6402H6.80263ZM31.3326 15.6602C30.5326 16.1502 29.2926 15.5902 28.5726 14.4002C27.8526 13.2102 27.9226 11.8602 28.7226 11.3702C29.5226 10.8802 30.7626 11.4402 31.4826 12.6302C32.2026 13.8102 32.1326 15.1702 31.3326 15.6602ZM33.4326 18.4102C33.7026 19.2202 33.4826 20.0202 32.9326 20.2102C32.3826 20.4002 31.7126 19.8902 31.4426 19.0802C31.1726 18.2702 31.3926 17.4702 31.9426 17.2802C32.4926 17.0902 33.1626 17.6002 33.4326 18.4102ZM25.0826 19.3302C25.2526 20.6902 24.8926 22.0302 24.0526 23.1102C23.2126 24.1902 22.0026 24.8802 20.6526 25.0502C19.2926 25.2202 17.9526 24.8602 16.8726 24.0202C15.7926 23.1802 15.1026 21.9702 14.9326 20.6202C14.7626 19.2602 15.1226 17.9202 15.9626 16.8402C16.8026 15.7602 18.0126 15.0702 19.3626 14.9002C19.5826 14.8702 19.7926 14.8602 20.0126 14.8602C22.5526 14.8602 24.7626 16.7502 25.0926 19.3402H25.0826V19.3302ZM3.14263 20.1702C3.02263 12.5002 8.32263 5.56023 15.7526 3.67023C17.1626 3.31023 18.5926 3.13024 20.0126 3.13024C23.5626 3.13024 26.9626 4.24023 29.8526 6.33023L21.8526 13.4802C21.0026 13.2402 20.0826 13.1602 19.1426 13.2802C17.3526 13.5102 15.7626 14.4202 14.6526 15.8402C13.5526 17.2702 13.0626 19.0402 13.2926 20.8302C13.5226 22.6202 14.4326 24.2102 15.8526 25.3202C17.0526 26.2502 18.4826 26.7402 19.9726 26.7402C20.2626 26.7402 20.5526 26.7202 20.8326 26.6802C21.7526 26.5602 22.6226 26.2602 23.3926 25.8102L32.9326 30.7402C30.1926 34.0502 26.3526 36.1602 22.1026 36.7002C21.3926 36.7902 20.6726 36.8402 19.9526 36.8402C10.8126 36.8402 3.26263 29.3602 3.12263 20.1702H3.14263ZM19.9726 38.4602C20.7526 38.4602 21.5426 38.4102 22.3226 38.3102C25.7126 37.8802 28.8526 36.5302 31.4726 34.4402C31.7226 34.6102 31.9726 34.7702 32.2126 34.9502C32.4826 35.1502 32.6226 35.4002 32.6226 35.6602C32.6226 35.9402 32.4626 36.2202 32.2026 36.4202C28.6526 39.0602 24.4326 40.4602 19.9926 40.4602C15.5526 40.4602 11.3326 39.0602 7.78263 36.4202C7.52263 36.2202 7.36263 35.9402 7.36263 35.6602C7.36263 35.4002 7.50263 35.1502 7.77263 34.9502C8.02263 34.7702 8.28263 34.6002 8.53263 34.4302C11.6926 36.9502 15.6626 38.4702 19.9626 38.4702L19.9726 38.4602Z" fill="black"/>
<path d="M19.9726 36.8304C20.6826 36.8304 21.4026 36.7804 22.1226 36.6904C26.3726 36.1504 30.2126 34.0304 32.9526 30.7304L23.4126 25.8004C22.6326 26.2604 21.7726 26.5604 20.8526 26.6704C20.5626 26.7104 20.2726 26.7304 19.9926 26.7304C18.5026 26.7304 17.0626 26.2404 15.8726 25.3104C14.4426 24.2104 13.5326 22.6104 13.3126 20.8204C13.0826 19.0304 13.5726 17.2604 14.6726 15.8304C15.7826 14.4004 17.3726 13.4904 19.1626 13.2704C20.1026 13.1504 21.0126 13.2304 21.8726 13.4704L29.8726 6.32036C26.9826 4.23036 23.5826 3.12036 20.0326 3.12036C18.6126 3.12036 17.1826 3.30036 15.7726 3.66036C8.35264 5.56036 3.04264 12.4904 3.16264 20.1604C3.30264 29.3504 10.8526 36.8304 19.9926 36.8304H19.9726Z" fill="#7E85A4"/>
<path d="M19.3527 14.8903C17.9927 15.0603 16.7827 15.7503 15.9527 16.8303C15.1127 17.9103 14.7527 19.2503 14.9227 20.6103C15.0927 21.9703 15.7827 23.1803 16.8627 24.0103C17.9427 24.8503 19.2827 25.2103 20.6427 25.0403C22.0027 24.8703 23.2127 24.1803 24.0427 23.1003C24.8827 22.0203 25.2527 20.6803 25.0727 19.3203C24.7427 16.7403 22.5327 14.8403 19.9927 14.8403C19.7827 14.8403 19.5627 14.8403 19.3427 14.8803H19.3527V14.8903Z" fill="white"/>
<path d="M28.7327 11.3702C27.9327 11.8602 27.8627 13.2202 28.5827 14.4002C29.3027 15.5802 30.5427 16.1502 31.3427 15.6602C32.1427 15.1702 32.2127 13.8102 31.4927 12.6302C30.7727 11.4502 29.5327 10.8802 28.7327 11.3702Z" fill="white"/>
<path d="M31.4426 19.0803C31.7126 19.8903 32.3826 20.3903 32.9326 20.2103C33.4826 20.0203 33.7026 19.2203 33.4326 18.4103C33.1626 17.6003 32.4926 17.1003 31.9426 17.2803C31.3926 17.4703 31.1726 18.2703 31.4426 19.0803Z" fill="white"/>
</svg>
